# xmcd CD database file
#
# Track frame offsets:
#	150
#	21835
#	43137
#	57399
#	77974
#	88201
#	97258
#	111582
#	122779
#	135527
#	149010
#	164107
#	188341
#	204516
#
# Disc length: 2835 seconds
#
# Revision: 3
# Processed by: cddbd v1.5.2PL0 Copyright (c) Steve Scherf et al.
# Submitted via: CDex 1.70beta2
#
DISCID=d90b110e
DTITLE=Armstrong, Louis - Tea for Two
DYEAR=2005
DGENRE=Jazz
TTITLE0=Tea for Two
TTITLE1=Jeepers Creepers
TTITLE2=Body and Soul
TTITLE3=I Used To Love You
TTITLE4=Way Down Yonder In New Orleans
TTITLE5=Muskrat Ramble
TTITLE6=Just A Gigolo
TTITLE7=Dippermouth Blues
TTITLE8=Lover
TTITLE9=Snake Rag
TTITLE10=New Orleans Stomp
TTITLE11=On The Sunny Side Of The Street
TTITLE12=I Got Rhythm
TTITLE13=Stompin' At The Savoy
EXTD=YEAR: 2005
EXTT0=
EXTT1=
EXTT2=
EXTT3=
EXTT4=
EXTT5=
EXTT6=
EXTT7=
EXTT8=
EXTT9=
EXTT10=
EXTT11=
EXTT12=
EXTT13=
PLAYORDER=
